<?xml version="1.0" standalone="no"?>
<!DOCTYPE svg PUBLIC "-//W3C//DTD SVG 20010904//EN"
 "http://www.w3.org/TR/2001/REC-SVG-20010904/DTD/svg10.dtd">
<svg version="1.0" xmlns="http://www.w3.org/2000/svg"
 width="500.000000pt" height="500.000000pt" viewBox="0 0 500.000000 500.000000"
 preserveAspectRatio="xMidYMid meet">

<g transform="translate(0.000000,500.000000) scale(0.100000,-0.100000)"
fill="#000000" stroke="none">
<path d="M0 2500 l0 -2500 2500 0 2500 0 0 2500 0 2500 -2500 0 -2500 0 0
-2500z m2900 744 c41 -8 108 -24 148 -36 l72 -21 0 -68 c0 -38 -4 -69 -10 -69
-5 0 -60 32 -122 72 -62 39 -134 80 -161 90 -99 38 -282 13 -410 -54 -133 -71
-246 -226 -285 -395 l-19 -78 -96 -3 c-111 -3 -109 -6 -81 89 108 368 503 562
964 473z m-1396 -653 c3 -5 -14 -6 -38 -4 -53 6 -86 -20 -86 -67 0 -42 37 -64
97 -57 28 3 40 1 32 -4 -25 -16 -85 -10 -113 12 -59 46 -17 129 65 129 21 0
40 -4 43 -9z m186 -58 c41 -80 47 -96 24 -65 -13 18 -26 22 -69 22 -43 0 -56
-4 -69 -22 -9 -13 -4 2 10 32 32 65 54 100 63 100 4 0 22 -30 41 -67z m173
-76 l62 -3 -67 -2 -68 -2 2 78 2 77 3 -72 4 -72 62 -4z m236 134 c10 -6 0 -8
-27 -4 -58 8 -92 -15 -92 -62 0 -45 33 -69 89 -63 22 2 37 0 35 -4 -8 -13 -88
-8 -106 6 -42 31 -39 103 5 124 28 13 77 15 96 3z m101 -116 c17 -20 74 -19
91 2 8 9 17 41 20 72 l6 56 2 -57 c1 -70 -20 -98 -74 -98 -53 0 -75 31 -74 99
l2 56 7 -57 c4 -32 13 -65 20 -73z m263 -18 l62 -3 -67 -2 -68 -2 2 78 2 77 3
-72 4 -72 62 -4z m227 76 c41 -80 47 -96 24 -65 -13 18 -26 22 -69 22 -43 0
-56 -4 -69 -22 -9 -13 -4 2 10 32 32 65 54 100 63 100 4 0 22 -30 41 -67z
m198 60 l-38 -4 -2 -72 -2 -72 -3 72 -4 72 -37 4 c-20 2 -1 4 43 4 44 0 63 -2
43 -4z m97 -68 c0 -41 -3 -75 -7 -75 -5 0 -8 34 -8 75 0 41 3 75 8 75 4 0 7
-34 7 -75z m210 50 c14 -13 25 -36 25 -50 0 -38 -42 -75 -85 -75 -43 0 -85 37
-85 75 0 38 42 75 85 75 25 0 44 -8 60 -25z m162 -42 l58 -66 6 69 5 69 2 -80
2 -79 -70 69 -69 68 -4 -69 -3 -69 -2 78 c-1 42 2 77 7 77 5 0 36 -30 68 -67z
m256 60 c3 -5 -14 -7 -36 -5 -79 5 -93 -42 -17 -54 23 -4 50 -14 61 -23 18
-15 18 -18 4 -38 -12 -18 -26 -23 -58 -23 -23 0 -47 4 -54 8 -6 4 14 7 45 7
51 0 57 2 60 22 3 17 -3 22 -30 28 -59 11 -88 27 -88 46 0 10 8 23 18 28 20
12 89 14 95 4z m-2553 -93 c0 -6 -75 -10 -205 -10 -130 0 -205 4 -205 10 0 6
75 10 205 10 130 0 205 -4 205 -10z m3300 0 c0 -6 -75 -10 -205 -10 -130 0
-205 4 -205 10 0 6 75 10 205 10 130 0 205 -4 205 -10z m-2206 -246 c87 -240
298 -404 551 -429 91 -9 141 10 287 106 59 40 111 69 115 65 3 -3 7 -36 7 -73
l1 -66 -70 -18 c-441 -114 -820 -21 -1012 248 -41 58 -102 188 -103 221 0 10
24 12 101 10 l101 -3 22 -61z"/>
<path d="M1620 2540 l-20 -40 45 0 c25 0 45 2 45 4 0 7 -42 76 -46 76 -2 0
-13 -18 -24 -40z"/>
<path d="M2620 2540 l-20 -40 45 0 c25 0 45 2 45 4 0 7 -42 76 -46 76 -2 0
-13 -18 -24 -40z"/>
<path d="M3080 2568 c-42 -45 -11 -108 55 -108 66 0 97 66 52 108 -31 29 -80
29 -107 0z"/>
</g>
</svg>
